# xmcd CD database file
#
# Track frame offsets:
#	150
#	20242
#	38887
#	57059
#	74013
#	89787
#	106031
#	127019
#	145312
#	167081
#	186548
#	206085
#	225820
#	246334
#	260859
#	280720
#	296418
#	314943
#
# Disc length: 4471 seconds
#
# Revision: 0
# Processed by: cddbd v1.5.2PL0 Copyright (c) Steve Scherf et al.
# Submitted via: CDex 1.70beta2
#
DISCID=23117512
DTITLE=Hello!Project - ハロー!プロジェクトの全曲から集めちゃいました! Vol.6 女子ミュージシャン編 [(大森靖子・津野米咲(赤い公園) ・ユリナ(住所不定無職)]
DYEAR=2014
DGENRE=Hello!Project
TTITLE0=One・Two・Three/モーニング娘。
TTITLE1=彼女になりたいっ!!!/ハロプロ研修生
TTITLE2=イジワルしないで 抱きしめてよ/ Juice=Juice
TTITLE3=Fantasyが始まる/モーニング娘
TTITLE4=初恋サイダー/Buono!
TTITLE5=絶対解ける問題 X=(ハート)/松浦亜弥
TTITLE6=BE HAPPY 恋のやじろべえ/タンポポ
TTITLE7=男友達/モーニング娘。
TTITLE8=DANCEするのだ!/モーニング娘。
TTITLE9=VERY BEAUTY/Berryz工房
TTITLE10=愛の園～Touch My Heart!～/モーニング娘。おとめ組 
TTITLE11=Loving you Too much/Berryz工房 
TTITLE12=悲しき雨降り/℃-ute 
TTITLE13=What is LOVE?/ モーニング娘。'14
TTITLE14=世界一HAPPYな女の子/℃-ute
TTITLE15=ね～え?/松浦亜弥
TTITLE16=新・日本のすすめ!/スマイレージ
TTITLE17=1億3千万総ダイエット王国/Berryz工房
EXTD=YEAR: 2014
EXTT0=
EXTT1=
EXTT2=
EXTT3=
EXTT4=
EXTT5=
EXTT6=
EXTT7=
EXTT8=
EXTT9=
EXTT10=
EXTT11=
EXTT12=
EXTT13=
EXTT14=
EXTT15=
EXTT16=
EXTT17=
PLAYORDER=
